<svg width="303" height="61" viewBox="0 0 303 61" fill="none" xmlns="http://www.w3.org/2000/svg">
<path d="M44.576 55.736C39.072 58.616 32.736 60.056 25.568 60.056C18.016 60.056 11.872 57.56 7.136 52.568C2.464 47.576 0.128 40.472 0.128 31.256C0.128 21.464 2.752 13.848 8 8.408C13.312 2.904 20.128 0.151997 28.448 0.151997C34.144 0.151997 39.456 1.24 44.384 3.41599L40.544 12.248C36.32 10.2 32.32 9.17599 28.544 9.17599C23.616 9.17599 19.424 10.968 15.968 14.552C12.512 18.136 10.784 23.096 10.784 29.432C10.784 36.792 12.224 42.232 15.104 45.752C18.048 49.208 22.624 50.936 28.832 50.936C32.032 50.936 36.128 49.816 41.12 47.576L44.576 55.736ZM97.9625 57.752L87.9785 60.44L82.4105 41.528H64.8425L59.6585 59H49.0985L68.7785 1.20799H79.3385L97.9625 57.752ZM80.4905 34.52L73.8665 11.384H73.7705L66.8585 34.52H80.4905ZM137.439 9.944H121.503V59H111.231V9.944H95.3908V1.20799H137.439V9.944Z" fill="#06BA84"/>
<path d="M186.796 14.744L183.724 23.384C180.652 22.168 177.932 21.56 175.564 21.56C171.852 21.56 168.876 22.84 166.636 25.4C164.46 27.96 163.372 31.416 163.372 35.768C163.372 46.136 167.34 51.32 175.276 51.32C177.516 51.32 180.204 50.648 183.34 49.304L186.412 57.272C182.316 59.128 178.06 60.056 173.644 60.056C167.18 60.056 162.22 57.976 158.764 53.816C155.308 49.656 153.58 43.992 153.58 36.824C153.58 29.016 155.724 23.064 160.012 18.968C164.3 14.808 169.548 12.728 175.756 12.728C179.532 12.728 183.212 13.4 186.796 14.744ZM227.407 58.424L217.903 59.864L217.135 54.68H217.039C213.263 58.328 209.327 60.152 205.231 60.152C201.583 60.152 198.703 59.096 196.591 56.984C194.479 54.872 193.423 51.992 193.423 48.344C193.423 40.536 198.607 36.152 208.975 35.192L216.367 34.424V30.776C216.367 24.568 213.487 21.464 207.727 21.464C204.911 21.464 201.935 22.296 198.799 23.96L195.247 17.144C199.855 14.2 204.751 12.728 209.935 12.728C214.927 12.728 218.831 14.072 221.647 16.76C224.463 19.384 225.871 23 225.871 27.608V47.96L227.407 58.424ZM216.367 49.496V40.376L211.375 40.952C205.743 41.592 202.927 43.64 202.927 47.096C202.927 48.76 203.407 50.136 204.367 51.224C205.327 52.248 206.639 52.76 208.303 52.76C210.991 52.76 213.679 51.672 216.367 49.496ZM262.075 22.04C256.763 22.04 252.603 23.544 249.595 26.552V59H239.899V24.92L238.459 14.36L247.963 13.016L248.731 19.256H248.827C252.283 14.968 256.699 12.824 262.075 12.824V22.04ZM302.166 56.504C297.43 58.936 292.502 60.152 287.382 60.152C280.47 60.152 275.254 58.04 271.734 53.816C268.214 49.592 266.454 43.64 266.454 35.96C266.454 29.048 268.214 23.48 271.734 19.256C275.318 14.968 280.022 12.824 285.846 12.824C291.35 12.824 295.382 14.488 297.942 17.816C300.502 21.08 301.782 25.496 301.782 31.064V36.44H275.958C276.15 46.488 280.47 51.512 288.918 51.512C291.926 51.512 295.254 50.648 298.902 48.92L302.166 56.504ZM293.046 30.104C293.046 23.768 290.518 20.6 285.462 20.6C282.902 20.6 280.822 21.496 279.222 23.288C277.622 25.016 276.63 27.288 276.246 30.104H293.046Z" fill="white"/>
</svg>
