<svg width="683" height="683" viewBox="0 0 683 683" fill="none" xmlns="http://www.w3.org/2000/svg">
<path d="M308.667 1.46671C202 12.5334 108.534 70.4 51.7337 160.933C-14.1329 265.733 -17.0663 402.267 44.2671 509.333C76.6671 565.733 124 612 179.867 641.867C227.467 667.333 280 681.333 329.334 681.867L347.334 682L347.734 549.6L348 417.333H311.334H274.667V374.667V332L311.067 331.733L347.334 331.333L348.134 286.667C348.8 246.133 349.067 241.067 351.734 231.333C362 194.533 386.4 170 423.334 159.733C432.934 157.067 437.2 156.8 465.334 156.8C482.534 156.667 502.534 157.2 509.734 157.867L522.667 158.933V197.333V235.733L491.067 236.267C459.467 236.667 459.334 236.667 452.4 240.267C437.734 248 436 254.267 436 298.267V332H478C501.067 332 520 332.4 520 332.933C520 333.6 517.6 352.267 514.667 374.533C511.734 396.933 509.334 415.6 509.334 416.267C509.334 416.8 492.8 417.333 472.667 417.333H436V543.333C436 612.667 436.267 669.333 436.534 669.333C439.067 669.333 470.8 657.333 482.8 651.867C522.934 633.467 554 611.333 586 578.533C613.867 549.867 631.067 525.2 648.8 488.667C664.534 456.133 675.334 419.867 680.267 382.667C682.4 366.133 682.4 314.8 680.267 299.333C669.067 220.533 636.534 154.133 582.534 100.133C529.6 47.3334 463.734 14.2667 388.667 3.20004C372.267 0.800041 324.934 -0.266626 308.667 1.46671Z" fill="white"/>
</svg>
