<svg width="683" height="683" viewBox="0 0 683 683" fill="none" xmlns="http://www.w3.org/2000/svg">
<g clip-path="url(#clip0_18_295)">
<path d="M214.534 1.33338C170.534 3.20005 140.401 8.80005 114.934 19.7334C91.0673 30 76.934 39.4667 59.334 56.9334C35.6007 80.5334 20.8007 107.067 11.4673 142.667C3.20065 174.133 1.33398 210.267 1.33398 341.333C1.33398 470.267 3.06732 506.8 10.8007 538.267C30.0007 616.533 87.334 666.4 171.734 678C195.867 681.2 246.534 682.667 343.334 682.667C433.334 682.667 485.201 681.333 508.534 678.533C556.267 672.933 593.601 656.4 623.067 628.133C656.267 596.133 673.867 557.867 680.267 503.333C682.801 482 682.801 197.467 680.267 177.333C675.067 136.533 662.934 102.933 643.734 77.2C634.267 64.4 614.001 45.0667 601.334 36.4C572.667 17.0667 538.134 6.40005 492.667 2.53338C471.201 0.800046 250.934 -0.133288 214.534 1.33338ZM502.934 65.7334C540.934 71.3334 562.267 80.8 582.801 101.2C596.134 114.533 603.467 126.267 610.001 144.4C620.934 175.067 622.001 191.333 622.001 342C622.001 428.8 621.467 470.533 620.267 484.533C616.401 530.8 607.201 555.733 585.601 578.8C563.067 602.8 534.934 614.667 491.334 618.667C467.734 620.933 272.667 622 227.734 620.133C207.467 619.333 186.267 618 180.534 617.2C155.334 613.733 130.934 604.8 115.734 593.733C106.267 586.667 91.0673 570.133 85.4673 560.8C74.2673 542.133 67.6007 515.867 65.334 482.533C61.334 422 62.6673 214.267 67.2007 179.867C72.0007 144.267 83.0673 120.267 104.001 100C126.934 77.7334 157.067 66.9334 203.734 64C213.867 63.4667 282.001 63.0667 355.334 63.3334C469.067 63.6 490.801 63.8667 502.934 65.7334Z" fill="white"/>
<path d="M506.935 122.667C491.868 130.267 484.668 142 484.668 159.333C484.668 171.867 487.601 179.333 496.135 187.867C504.668 196.267 512.135 199.333 524.668 199.333C533.601 199.333 536.535 198.8 542.935 195.6C556.401 188.933 564.001 177.333 565.068 161.867C566.001 148.133 562.935 140.133 553.468 130.533C544.668 121.733 536.935 118.667 524.001 118.667C516.801 118.667 513.601 119.467 506.935 122.667Z" fill="white"/>
<path d="M311.467 168.8C276.401 175.2 245.334 191.6 219.201 217.867C184.534 252.4 167.867 292.8 167.867 341.333C167.867 370.667 173.334 394.8 185.467 419.067C222.801 493.2 304.934 531.2 384.801 511.333C416.267 503.467 440.534 489.867 464.134 467.067C485.334 446.533 499.601 424.133 508.534 397.333C514.934 378 517.334 363.067 517.334 341.333C517.334 319.733 514.934 304.667 508.667 285.733C500.134 260.133 487.734 239.867 468.401 219.867C442.001 192.667 409.067 175.067 372.801 168.667C358.001 166.133 325.867 166.133 311.467 168.8ZM364.267 229.867C425.334 241.6 465.867 301.6 454.134 363.067C446.934 400.267 419.601 433.333 384.667 446.8C367.601 453.467 357.734 455.067 338.001 454.267C324.001 453.733 318.534 452.933 309.334 450C268.934 437.2 239.467 404.533 231.201 363.467C228.001 347.6 229.201 322.933 234.001 308C246.534 268.267 280.001 238 319.867 230C331.734 227.6 352.267 227.6 364.267 229.867Z" fill="white"/>
</g>
<defs>
<clipPath id="clip0_18_295">
<rect width="682.667" height="682.667" fill="white"/>
</clipPath>
</defs>
</svg>
