<svg width="683" height="683" viewBox="0 0 683 683" fill="none" xmlns="http://www.w3.org/2000/svg">
<path d="M308.666 1.46657C202 12.5332 108.533 70.5332 51.733 160.933C-28.8003 288.933 -13.7337 458.267 87.9997 569.6C144.4 631.333 214.8 668.267 299.333 680.267C315.066 682.533 367.466 682.4 384 680.267C461.2 669.6 530.266 635.333 582.8 581.733C600.133 564.133 603.733 560 615.2 544.8C649.333 499.333 671.6 443.867 680.266 383.333C682.533 367.6 682.533 315.067 680.266 299.333C674.533 258.933 664 224.533 647.333 190.8C629.466 155.067 611.333 129.6 582.933 100.933C530.266 47.5999 464.4 14.3999 388.666 3.1999C372.266 0.799899 324.933 -0.266767 308.666 1.46657ZM438 191.333C448.933 194.133 460.933 200.4 469.2 207.6L476.133 213.6L485.066 211.333C495.866 208.667 511.866 202.4 519.733 197.733L525.6 194.4L524.666 197.467C521.466 208.133 508.933 225.333 499.066 232.267C495.866 234.667 493.733 236.8 494.666 237.067C496.8 237.867 515.466 233.467 525.333 229.867C530 228.133 534.133 227.067 534.4 227.333C536.266 229.067 509.6 257.6 500.8 263.333C497.866 265.2 497.733 266.4 496.933 284.4C495.466 318.4 487.2 348.933 471.2 380C459.733 402.267 447.6 419.067 430.666 436C400 466.667 363.333 486.133 319.466 495.067C306.666 497.6 300.666 498 274.666 498C248.533 497.867 242.8 497.467 230.666 494.933C210.8 490.533 195.066 485.067 176.666 476C152.8 464.4 152.933 464.667 173.6 464.533C201.333 464.4 221.2 459.6 245.466 447.2C251.866 443.867 259.866 439.2 263.333 436.667C269.333 432.4 269.6 432.133 266.533 431.6C264.8 431.2 259.866 430.267 255.6 429.6C231.866 425.2 208.666 406 199.733 383.333L197.6 378H211.866C231.466 378 233.733 376.8 222 372.667C193.6 362.667 174 337.333 170 305.467C169.066 298.8 169.2 298.4 171.466 299.333C179.6 302.667 192.133 306.533 197.6 307.2L203.733 307.867L194.266 298.267C174.266 278.133 166.4 251.2 172.666 224.267C174.266 217.733 178.533 206.8 180.533 204.4C180.666 204.133 188.266 211.467 197.466 220.4C227.333 250 261.2 268.933 302 279.2C309.733 281.2 341.466 285.733 342 285.067C342.266 284.8 341.733 280.8 341.066 276.133C339.6 266.667 341.066 252.8 344.8 241.733C352.666 218.4 373.066 199.067 398 191.867C408.133 188.933 427.466 188.667 438 191.333Z" fill="white"/>
</svg>
